<?xml version="1.0" encoding="UTF-8"?><svg id="a" xmlns="http://www.w3.org/2000/svg" viewBox="0 0 1000 172"><defs><style>.b{fill:#1d2b59;}</style></defs><path class="b" d="M90.51,55.15h27.52v106.66h-27.52v-12.59c-8.25,10.38-19.84,15.57-34.77,15.57s-26.42-5.44-36.58-16.32c-10.17-10.88-15.25-24.21-15.25-40s5.08-29.12,15.25-40c10.17-10.88,22.36-16.32,36.58-16.32,14.93,0,26.52,5.19,34.77,15.58v-12.59Zm-50.77,74.98c5.55,5.62,12.59,8.42,21.12,8.42s15.61-2.81,21.23-8.42c5.62-5.62,8.43-12.83,8.43-21.65s-2.81-16.03-8.43-21.65c-5.62-5.62-12.69-8.43-21.23-8.43s-15.57,2.81-21.12,8.43c-5.55,5.62-8.32,12.83-8.32,21.65s2.77,16.04,8.32,21.65Z"/><path class="b" d="M189.44,164.79c-16.07,0-29.48-5.4-40.21-16.21-10.74-10.8-16.11-24.17-16.11-40.1s5.37-29.29,16.11-40.1c10.74-10.8,24.14-16.21,40.21-16.21,10.38,0,19.84,2.49,28.37,7.47,8.53,4.98,15,11.66,19.41,20.05l-23.68,13.87c-2.13-4.41-5.37-7.89-9.71-10.45-4.34-2.56-9.21-3.84-14.61-3.84-8.25,0-15.08,2.74-20.48,8.21-5.41,5.48-8.11,12.48-8.11,21.01s2.7,15.33,8.11,20.8c5.4,5.48,12.23,8.21,20.48,8.21,5.55,0,10.49-1.24,14.83-3.73,4.34-2.49,7.57-5.94,9.71-10.35l23.89,13.65c-4.69,8.39-11.31,15.11-19.84,20.16-8.53,5.05-17.99,7.57-28.37,7.57Z"/><path class="b" d="M303.68,164.79c-16.07,0-29.48-5.4-40.21-16.21-10.74-10.8-16.11-24.17-16.11-40.1s5.37-29.29,16.11-40.1c10.74-10.8,24.14-16.21,40.21-16.21,10.38,0,19.84,2.49,28.37,7.47,8.53,4.98,15,11.66,19.41,20.05l-23.68,13.87c-2.13-4.41-5.37-7.89-9.71-10.45-4.34-2.56-9.21-3.84-14.61-3.84-8.25,0-15.08,2.74-20.48,8.21-5.41,5.48-8.11,12.48-8.11,21.01s2.7,15.33,8.11,20.8c5.4,5.48,12.23,8.21,20.48,8.21,5.55,0,10.49-1.24,14.83-3.73,4.34-2.49,7.57-5.94,9.71-10.35l23.89,13.65c-4.69,8.39-11.31,15.11-19.84,20.16-8.53,5.05-17.99,7.57-28.37,7.57Z"/><path class="b" d="M391.35,119.78c3.7,13.37,13.72,20.05,30.08,20.05,10.52,0,18.48-3.55,23.89-10.67l22.19,12.8c-10.53,15.22-26.02,22.82-46.5,22.82-17.63,0-31.78-5.33-42.45-16-10.67-10.67-16-24.11-16-40.32s5.26-29.47,15.78-40.21c10.52-10.74,24.03-16.11,40.53-16.11,15.64,0,28.55,5.41,38.72,16.21,10.17,10.81,15.25,24.18,15.25,40.1,0,3.56-.36,7.33-1.07,11.31h-80.42Zm-.43-21.33h54.4c-1.57-7.25-4.8-12.65-9.71-16.21-4.91-3.55-10.49-5.33-16.74-5.33-7.4,0-13.51,1.88-18.35,5.65-4.84,3.77-8.04,9.07-9.6,15.89Z"/><path class="b" d="M492.1,161.81V7.21h27.52V161.81h-27.52Z"/><path class="b" d="M650.74,13.6V161.81h-18.56v-18.35c-8.53,13.02-22.19,21.12-40.32,21.12-29.65,0-53.97-24.53-53.97-56.1s24.32-56.11,53.97-56.11c18.13,0,31.79,8.11,40.32,21.12V13.6h18.56Zm-18.56,94.87c0-21.76-16.43-38.19-37.97-38.19s-37.76,16.43-37.76,38.19,16.43,38.18,37.76,38.18,37.97-16.43,37.97-38.18Z"/><path class="b" d="M780.5,55.14v106.67h-18.56v-18.35c-8.53,13.02-22.19,21.12-40.32,21.12-29.65,0-53.97-24.53-53.97-56.1s24.32-56.11,53.97-56.11c18.13,0,31.79,8.11,40.32,21.12v-18.35h18.56Zm-18.56,53.33c0-21.76-16.43-38.19-37.97-38.19s-37.76,16.43-37.76,38.19,16.43,38.18,37.76,38.18,37.97-16.43,37.97-38.18Z"/><path class="b" d="M841.52,73.06v57.81c0,16.21,9.39,15.15,28.37,14.29v16.64c-32,4.27-46.93-4.27-46.93-30.93v-57.81h-21.12v-17.92h21.12V30.82l18.56-4.14v28.46h28.37v17.92h-28.37Z"/><path class="b" d="M996.1,55.14v106.67h-18.56v-18.35c-8.53,13.02-22.19,21.12-40.32,21.12-29.65,0-53.97-24.53-53.97-56.1s24.32-56.11,53.97-56.11c18.13,0,31.79,8.11,40.32,21.12v-18.35h18.56Zm-18.56,53.33c0-21.76-16.43-38.19-37.97-38.19s-37.76,16.43-37.76,38.19,16.43,38.18,37.76,38.18,37.97-16.43,37.97-38.18Z"/></svg>