<svg width="119" height="117" viewBox="0 0 119 117" fill="none" xmlns="http://www.w3.org/2000/svg">
<path d="M90.44 3.57001H118.91V113.91H90.44V100.89C81.91 111.63 69.92 117 54.47 117C39.02 117 27.14 111.37 16.62 100.12C6.10003 88.86 0.840027 75.07 0.840027 58.74C0.840027 42.41 6.10003 28.62 16.62 17.36C27.14 6.11001 39.76 0.480011 54.47 0.480011C69.92 0.480011 81.91 5.85001 90.44 16.59V3.57001V3.57001ZM37.92 81.14C43.66 86.95 50.94 89.86 59.77 89.86C68.6 89.86 75.91 86.96 81.73 81.14C87.54 75.33 90.45 67.86 90.45 58.74C90.45 49.62 87.54 42.15 81.73 36.34C75.92 30.53 68.6 27.62 59.77 27.62C50.94 27.62 43.66 30.53 37.92 36.34C32.18 42.15 29.31 49.62 29.31 58.74C29.31 67.86 32.18 75.33 37.92 81.14V81.14Z" fill="#ffffff"/>
</svg>
