<svg width="1440" height="321" viewBox="0 0 1440 321" fill="none" xmlns="http://www.w3.org/2000/svg">
<path d="M1440 24.4409V362H0V13.75C19.5941 23.9967 31.8405 43.5279 32.7695 67.0669C139.281 -52.743 255.684 5.04704 319.851 115.224C381.622 71.6246 448.828 102.312 479.804 151.664C582.334 73.5809 660.267 169.894 660.267 169.894C734.094 125.64 813.378 205.033 813.378 205.033C892.672 121.727 971.968 167.282 971.968 167.282C1022.56 91.8009 1088.17 130.842 1088.17 130.842C1160.69 -9.2921 1289.13 -9.22863 1384.83 72.2696C1402.7 46.7532 1422.28 32.393 1440 24.4409Z" fill="url(#paint0_radial_16263_7999)"/>
<path d="M720 7.5C581.377 7.5 469 122.339 469 264C469 299.092 475.896 332.538 488.378 363H951.622C964.104 332.538 971 299.092 971 264C971 122.339 858.623 7.5 720 7.5Z" fill="url(#paint1_radial_16263_7999)"/>
<path d="M720 100.5C631.082 100.5 559 173.925 559 264.5C559 300.572 570.433 333.923 589.808 361H850.192C869.567 333.923 881 300.572 881 264.5C881 173.925 808.918 100.5 720 100.5Z" fill="white"/>
<path d="M1440 193.122V362.5H0V170.594C5.79589 172.642 12.0035 174.278 18.7601 175.239C57.8217 180.823 56.2276 152.129 106.439 154.515C156.658 156.912 143.905 172.05 174.986 169.665C206.077 167.268 222.81 156.035 245.128 158.865C267.446 161.694 283.386 192.774 312.082 189.586C340.786 186.398 397.373 183.209 410.127 180.021C422.879 176.833 439.622 160.1 470.704 154.515C501.794 148.941 529.687 156.912 552.807 159.298C575.917 161.694 611.79 155.318 632.514 147.347C653.237 139.376 662.01 127.415 712.22 129.812C762.441 132.198 805.483 154.515 855.693 151.327C905.912 148.139 934.607 139.376 965.698 143.356C996.778 147.347 1024.68 163.288 1043.01 154.515C1061.35 145.753 1080.47 141.678 1122.71 159.656C1164.97 177.635 1182.5 157.703 1219.16 151.327C1255.83 144.95 1308.44 146.46 1333.94 159.656C1359.45 172.853 1390.54 193.576 1416.05 193.576C1423.56 193.576 1431.78 193.439 1440 193.122Z" fill="url(#paint2_radial_16263_7999)"/>
<defs>
<radialGradient id="paint0_radial_16263_7999" cx="0" cy="0" r="1" gradientUnits="userSpaceOnUse" gradientTransform="translate(720.002 215.002) scale(720.002 437.874)">
<stop stop-color="#F2F4F8"/>
<stop offset="1" stop-color="#D8DCE5" stop-opacity="0.4"/>
</radialGradient>
<radialGradient id="paint1_radial_16263_7999" cx="0" cy="0" r="1" gradientUnits="userSpaceOnUse" gradientTransform="translate(720 264) scale(253.744 253.786)">
<stop offset="0.526042" stop-color="white"/>
<stop offset="1" stop-color="white" stop-opacity="0.27"/>
</radialGradient>
<radialGradient id="paint2_radial_16263_7999" cx="0" cy="0" r="1" gradientUnits="userSpaceOnUse" gradientTransform="translate(720.002 246.001) scale(720.002 237.82)">
<stop stop-color="#F2F4F8"/>
<stop offset="1" stop-color="#D8DCE5" stop-opacity="0.4"/>
</radialGradient>
</defs>
</svg>
